<?xml version="1.0" encoding="UTF-8" standalone="no"?>
<svg width="237px" height="93px" viewBox="0 0 237 93" version="1.1" xmlns="http://www.w3.org/2000/svg" xmlns:xlink="http://www.w3.org/1999/xlink" xmlns:sketch="http://www.bohemiancoding.com/sketch/ns">
    <!-- Generator: Sketch 3.1.1 (8761) - http://www.bohemiancoding.com/sketch -->
    <title>Artboard 5</title>
    <desc>Created with Sketch.</desc>
    <defs></defs>
    <g id="Welcome" stroke="none" stroke-width="1" fill="none" fill-rule="evenodd" sketch:type="MSPage">
        <g id="Artboard-5" sketch:type="MSArtboardGroup">
            <path d="M61.5,26.5 L57,24" id="Line" stroke="#FFFFFF" stroke-width="0.4" stroke-linecap="square" sketch:type="MSShapeGroup"></path>
            <path d="M64.625,26.3828125 L65.125,20.8828125" id="Line-2" stroke="#FFFFFF" stroke-width="0.4" stroke-linecap="square" sketch:type="MSShapeGroup"></path>
            <path d="M71.625,32.3828125 L67.125,29.8828125" id="Line-3" stroke="#FFFFFF" stroke-width="0.4" stroke-linecap="square" sketch:type="MSShapeGroup"></path>
            <path d="M67.125,36.8828125 L65.125,31.8828125" id="Line-4" stroke="#FFFFFF" stroke-width="0.4" stroke-linecap="square" sketch:type="MSShapeGroup"></path>
            <path d="M71.125,22.8828125 L67.125,26.8828125" id="Line-5" stroke="#FFFFFF" stroke-width="0.4" stroke-linecap="square" sketch:type="MSShapeGroup"></path>
            <path d="M28.3125,71.8828125 L22.7109375,71.8828125 L22.7109375,60.890625 L10.171875,38.2734375 L15.890625,38.2734375 L25.4765625,54.65625 L34.8984375,38.2734375 L40.6640625,38.2734375 L28.3125,60.703125 L28.3125,71.8828125 Z M67.7226562,40.3710938 C70.4492324,41.8632887 72.5937422,43.9023308 74.15625,46.4882812 C75.7187578,49.0742317 76.5,51.9374843 76.5,55.078125 C76.5,58.2500159 75.7187578,61.1327995 74.15625,63.7265625 C72.5937422,66.3203255 70.4492324,68.36718 67.7226562,69.8671875 C64.9960801,71.367195 61.9843915,72.1171875 58.6875,72.1171875 C55.3906085,72.1171875 52.3828261,71.367195 49.6640625,69.8671875 C46.9452989,68.36718 44.8046953,66.3203255 43.2421875,63.7265625 C41.6796797,61.1327995 40.8984375,58.2500159 40.8984375,55.078125 C40.8984375,51.9062341 41.6796797,49.0351691 43.2421875,46.4648438 C44.8046953,43.8945184 46.9452989,41.8632887 49.6640625,40.3710938 C52.3828261,38.8788988 55.3906085,38.1328125 58.6875,38.1328125 C61.9843915,38.1328125 64.9960801,38.8788988 67.7226562,40.3710938 L67.7226562,40.3710938 Z M105.375,40.5117188 C107.390635,42.0039137 108.398438,44.0624869 108.398438,46.6875 C108.398438,48.5781345 107.871099,50.1874934 106.816406,51.515625 C105.761713,52.8437566 104.320322,53.7265603 102.492188,54.1640625 C104.726574,54.5546895 106.488275,55.4999925 107.777344,57 C109.066413,58.5000075 109.710938,60.3906136 109.710938,62.671875 C109.710938,65.5468894 108.621105,67.8007731 106.441406,69.4335938 C104.261708,71.0664144 101.265644,71.8828125 97.453125,71.8828125 L82.5234375,71.8828125 L82.5234375,38.2734375 L97.125,38.2734375 C100.609392,38.2734375 103.359365,39.0195238 105.375,40.5117188 L105.375,40.5117188 Z M88.1953125,52.1953125 L96.84375,52.1953125 C98.640634,52.1953125 100.04687,51.796879 101.0625,51 C102.07813,50.203121 102.585938,49.1015695 102.585938,47.6953125 C102.585938,46.2890555 102.082036,45.207035 101.074219,44.4492188 C100.066401,43.6914025 98.6562591,43.3125 96.84375,43.3125 L88.1953125,43.3125 L88.1953125,52.1953125 Z M88.1953125,66.84375 L96.84375,66.84375 C99.0781362,66.84375 100.812494,66.417973 102.046875,65.5664062 C103.281256,64.7148395 103.898438,63.5078203 103.898438,61.9453125 C103.898438,60.4765552 103.273444,59.3164105 102.023438,58.4648438 C100.773431,57.613277 99.046886,57.1875 96.84375,57.1875 L88.1953125,57.1875 L88.1953125,66.84375 Z M140.449219,40.3710938 C143.175795,41.8632887 145.320305,43.9023308 146.882812,46.4882812 C148.44532,49.0742317 149.226562,51.9374843 149.226562,55.078125 C149.226562,58.2500159 148.44532,61.1327995 146.882812,63.7265625 C145.320305,66.3203255 143.175795,68.36718 140.449219,69.8671875 C137.722643,71.367195 134.710954,72.1171875 131.414062,72.1171875 C128.117171,72.1171875 125.109389,71.367195 122.390625,69.8671875 C119.671861,68.36718 117.531258,66.3203255 115.96875,63.7265625 C114.406242,61.1327995 113.625,58.2500159 113.625,55.078125 C113.625,51.9062341 114.406242,49.0351691 115.96875,46.4648438 C117.531258,43.8945184 119.671861,41.8632887 122.390625,40.3710938 C125.109389,38.8788988 128.117171,38.1328125 131.414062,38.1328125 C134.710954,38.1328125 137.722643,38.8788988 140.449219,40.3710938 L140.449219,40.3710938 Z M125.425781,44.8125 C123.574209,45.8750053 122.101568,47.3085847 121.007813,49.1132812 C119.914057,50.9179778 119.367188,52.9062391 119.367188,55.078125 C119.367188,57.2500109 119.921869,59.2499909 121.03125,61.078125 C122.140631,62.9062591 123.613272,64.3554634 125.449219,65.4257812 C127.285165,66.4960991 129.289052,67.03125 131.460938,67.03125 C133.632823,67.03125 135.632803,66.5039115 137.460938,65.4492188 C139.289072,64.394526 140.738276,62.9453217 141.808594,61.1015625 C142.878912,59.2578033 143.414062,57.2500109 143.414062,55.078125 C143.414062,52.9062391 142.878912,50.9179778 141.808594,49.1132812 C140.738276,47.3085847 139.292978,45.8750053 137.472656,44.8125 C135.652335,43.7499947 133.648448,43.21875 131.460938,43.21875 C129.289052,43.21875 127.277353,43.7499947 125.425781,44.8125 L125.425781,44.8125 Z M185.554688,71.8828125 L185.507812,46.78125 L174.890625,68.3671875 L171.1875,68.3671875 L160.59375,46.78125 L160.59375,71.8828125 L155.25,71.8828125 L155.25,38.2734375 L161.976562,38.2734375 L173.0625,60.609375 L184.101562,38.2734375 L190.78125,38.2734375 L190.78125,71.8828125 L185.554688,71.8828125 Z M222.492188,40.5117188 C224.507823,42.0039137 225.515625,44.0624869 225.515625,46.6875 C225.515625,48.5781345 224.988287,50.1874934 223.933594,51.515625 C222.878901,52.8437566 221.437509,53.7265603 219.609375,54.1640625 C221.843761,54.5546895 223.605462,55.4999925 224.894531,57 C226.1836,58.5000075 226.828125,60.3906136 226.828125,62.671875 C226.828125,65.5468894 225.738292,67.8007731 223.558594,69.4335938 C221.378895,71.0664144 218.382832,71.8828125 214.570312,71.8828125 L199.640625,71.8828125 L199.640625,38.2734375 L214.242188,38.2734375 C217.72658,38.2734375 220.476552,39.0195238 222.492188,40.5117188 L222.492188,40.5117188 Z M205.3125,52.1953125 L213.960938,52.1953125 C215.757821,52.1953125 217.164057,51.796879 218.179688,51 C219.195318,50.203121 219.703125,49.1015695 219.703125,47.6953125 C219.703125,46.2890555 219.199224,45.207035 218.191406,44.4492188 C217.183589,43.6914025 215.773447,43.3125 213.960938,43.3125 L205.3125,43.3125 L205.3125,52.1953125 Z M205.3125,66.84375 L213.960938,66.84375 C216.195324,66.84375 217.929681,66.417973 219.164062,65.5664062 C220.398444,64.7148395 221.015625,63.5078203 221.015625,61.9453125 C221.015625,60.4765552 220.390631,59.3164105 219.140625,58.4648438 C217.890619,57.613277 216.164074,57.1875 213.960938,57.1875 L205.3125,57.1875 L205.3125,66.84375 Z" id="YOBOMB" fill="#FFFFFF" sketch:type="MSShapeGroup"></path>
            <path d="M58.625,39.3828125 C58.625,39.3828125 58.6843688,35.6660043 60.2230662,33.3567495 C61.9465346,30.770193 63.6561651,29.6658375 63.6561651,29.6658375" id="Line" stroke="#FFFFFF" stroke-width="1.5" stroke-linecap="square" sketch:type="MSShapeGroup"></path>
        </g>
    </g>
</svg>